<svg xmlns="http://www.w3.org/2000/svg" width="303" height="330" viewBox="0 0 690 748"><path d="M327.36 33.75c5.82-11.12 10.7-22.7 16.67-33.75 3.25 7.78 7.48 15.1 10.94 22.76q59.74 122.85 119.47 245.7c3 5.9 5.86 11.9 8.44 18-13.8 6.24-27.17 13.3-40.74 20-13.16 6-26 12.8-39 19.17-14.73 6.68-28.85 14.65-43.6 21.27L140.1 455.2c-7.75 3.26-15 7.54-22.7 10.93 2.14-6.26 5.93-11.78 8.4-17.9q94.8-194.76 189.5-389.56c3.75-8.45 8.36-16.47 12.05-24.92zm139.28 271.3c5.17-2.1 10-5.06 15.14-7.1-4.86 11.24-10.9 22-16.18 33q-16.7 33.42-33.43 66.83c-17.88-8.3-35.3-17.58-53-26.18-7.8-3.5-15.33-7.52-23-11.28 0-.14-.14-.4-.2-.54l110.66-54.74zm-10.5 66.54q17.37-34.68 34.7-69.4 39.88 82 79.74 164c-13.43-5.85-26.16-13.26-39.55-19.2q-22.42-11.18-44.83-22.4c-15.23-7-30.06-14.9-45.13-22.24 4.52-10.53 10.13-20.5 15.06-30.75zm-111.84-6.3q19.1 9.54 38.2 19.1c20.8 9.6 40.9 20.62 61.68 30.24L486.82 436c13.84 6.28 27.25 13.47 40.92 20.13 11.56 6 23.5 11.18 35 17.28q-218.58.07-437.18 0l2.68-1.74c14.88-6.57 29-14.7 43.9-21.3l145.15-71.74c9.15-4.15 18.04-8.84 27.02-13.34z" fill="#bf1e24"/><path d="M587 501.35c2.5 2.22 3.36 5.64 4.82 8.56q38.8 79.76 77.54 159.52c-8.25-.1-16.5-.08-24.76 0L579.14 534.7c-1.1-2.52-3-4.8-3.25-7.6 3.5-8.68 7.82-17 11.12-25.74zm-169.95 8.17c18.3-7.68 39.3-8 58.05-1.72a84.82 84.82 0 0 1 14 7l-.08 26.9a62.15 62.15 0 0 0-33.16-16.61 56.6 56.6 0 0 0-42.21 9.87 63.72 63.72 0 0 0-24.67 38.64 66.69 66.69 0 0 0 2.66 36c2.77 5.9 5.62 11.83 9.73 16.92 9.18 11.54 22.67 19.86 37.4 21.75a56.29 56.29 0 0 0 34.8-6.37c5.75-2.8 10.6-7 15.46-11.08v27.37c-12 7.6-26.2 10.9-40.24 11.72-17.82.13-35.86-5.1-50.14-15.92-22.57-16.4-35.68-45.1-32.87-72.94.57-15.4 6.48-30.28 15.08-42.94 8.85-12.9 21.97-22.37 36.2-28.6zm-321.1.3h14.86l39.58 98.42-10.9 27.63a18.2 18.2 0 0 1-1.63-3l-35.16-85.5c-3.56 5.64-5.66 12-8.9 17.87L43 669.42c-8.24-.1-16.5-.07-24.73 0l77.68-159.6zm103.9-.02h14.85L277 669.35h-23.2l-48.38-115.38c-5 10.72-9 21.88-13.68 32.75l-29.1 70.7c-4.77.12-9.56-.08-14.33.15a41.45 41.45 0 0 1-3.62-8.41q27.48-69.72 55.14-139.37zm109.04-.03q11.1.1 22.2 0 .06 79.8 0 159.62c-7.4-.06-14.8 0-22.2 0q-.1-79.78.01-159.62zm234.58 86.03l27.18-56.7c3.26 8.6 8.2 16.43 11.82 24.88l-49.7 105.38h-23.9l34.6-73.56zM.04 706.2H31.4l-.1 6.1c-3.94-.1-7.88 0-11.8-.17l-.15 35.24q-3.62-.1-7.23 0c-.5-11.7-.07-23.44-.22-35.15H0l.04-6.02zm41.16.02h7.48c.3 5.43.1 10.87.14 16.3H68.9q0-8.16 0-16.3 3.77 0 7.53-.06l-.1 41.17H69.1c-.48-6.12-.1-12.26-.23-18.4h-20c-.14 6.13.3 12.3-.33 18.4q-3.62-.1-7.23 0l-.1-41.14zm49.36.05c7.58-.07 15.17.2 22.76-.13v6.1H98.14v10.86h14.68q0 3 0 6H98.2v11.5c5-.13 10.08.05 15.1-.17v7.07c-7.57-.15-15.13-.08-22.7 0l-.06-41.24zm54.47 6.33c2.5-5 8.44-7.25 13.75-6.9 3.3.15 6.7-.47 9.9.63a55.07 55.07 0 0 0-.62 6.8c-4-1.58-8.83-2.3-12.93-.6-2.76 1-4.55 5-2 7.13 4.86 4 12.5 3.5 16.36 9 2.87 4.46 1.3 10.22-1.7 14.2-5.9 4.87-13.86 6.18-21.2 4.44l-1.8-1.33a57.27 57.27 0 0 1 .67-6.82c4.58 1.88 10.3 3.05 14.8.34 2.85-1.56 3.57-6.5.55-8.2-4.94-2.5-11.13-3-14.93-7.4-2.55-3.17-2.28-7.7-.83-11.3zm36.17 3c2.78-5.9 9.24-9.3 15.55-9.85 4 0 8.17-.33 12.14.64 1.1 2.1-.27 4.74 0 7.07-5.26-1-11.35-2.58-16.22.47s-6.36 9-6 14.23c.38 3.8 1.57 8.1 5.08 10.15 5.1 3.53 12 2.62 17.4.32.3 2.33.4 4.7.56 7-4.46.9-8.9 2.9-13.5 2.06-5.38-.88-11.1-2.92-14.26-7.66-4.63-7.23-4.43-16.9-.73-24.43zm38.1-9.23a29.81 29.81 0 0 1 8.17 0 148.79 148.79 0 0 1-.11 16.22h20.12c.05-5.47-.15-11 .1-16.42 2.5.1 5 .12 7.5.1v41.16a20.74 20.74 0 0 1-5.29-.48l-2.25.55-.06-18.45h-20.05l-.13 18.37q-3.66-.07-7.3 0c-.33-12.47 0-25-.16-37.42-.07-1.27-.44-2.38-.55-3.62zm51.6 5.08a21.88 21.88 0 0 1 10-5.57c6.1-.48 12.93-.8 18 3.33 6.93 5.4 7.77 15.3 6.12 23.33-1.65 7.34-7.9 12.75-15 14.72a21.53 21.53 0 0 1-10.58 0c-4.06-1.46-8.15-3.46-10.57-7.2-5.5-8.62-4.8-20.93 2.03-28.62zm12.1.84c-6.24 1.16-9.78 7.94-9.54 13.87-.2 4.75 1.14 10.24 5.47 12.86 5.86 3.9 15 1.18 17.38-5.56a20.82 20.82 0 0 0-.95-16.14c-2.4-4.3-7.75-5.8-12.36-5.03zm42.17-5.7c6.72-1.77 14.76-1.8 20.5 2.68 3.76 2.76 5.65 7.38 6.5 11.84.2 4.92.63 10.13-1.63 14.7-2.92 7.07-10.38 11.13-17.7 12-6.65.28-13.8-2.47-17.6-8.15a26.17 26.17 0 0 1-2.5-18.7c1.14-6.5 6.34-11.93 12.42-14.36zm3.9 5.8c-6 2-9.57 8.54-8.87 14.73-.28 6.1 3.67 13 10.23 13.5 6.88 1.22 13.56-4.74 13.72-11.6.27-4.54.05-9.52-3.1-13.12-2.83-3.48-7.77-4.38-12-3.48zm33.47-6.1l7.63-.1v34.34c4.85-.1 9.72-.06 14.58-.07a30.72 30.72 0 0 1-.32 7c-7.3-.18-14.6-.1-21.87-.06l-.02-41.1zm61.56.3c7.16-1.86 15.88-1.68 21.57 3.7a21.11 21.11 0 0 1 5.27 10.69c.25 5.14.68 10.62-1.85 15.32-2.8 6.55-9.66 10.14-16.34 11.5-6.62.68-13.87-1.8-18-7.15-3.7-5.08-4.28-11.67-3.65-17.73a20 20 0 0 1 13-16.33zm3.15 6.07c-5.32 2-8.55 7.8-8.28 13.4-.3 5.28 1.73 11.66 7 13.76 5.7 2.57 13.33-.08 15.64-6a19.93 19.93 0 0 0-.92-16.66c-2.67-4.47-8.66-6.03-13.44-4.5zm34.15-6.5c7.75.2 15.5.12 23.25.06v6c-5.22 0-10.43 0-15.64-.08a294.94 294.94 0 0 0 0 11.52c4.86-.1 9.72-.06 14.6-.08v6c-4.84-.06-9.68 0-14.5-.1-.25 5.94 0 11.9-.14 17.84h-7.54v-41.15zm55.42.1l7.5-.1v41.18h-7.2c-.82-13.65-.36-27.4-.3-41.1zm23.3-.08c8.57 0 17.63-1.85 25.8 1.8a14.8 14.8 0 0 1 9 10.23c2.4 8.46 1 19.18-6.74 24.48-3.48 2.82-8 3.15-12.1 4.6-5.3.06-10.58-.06-15.86.08-.27-13.73-.04-27.46-.1-41.2zm7.56 6q0 14.1 0 28.22c4.15-.1 8.5.6 12.42-1.14 4.9-1.8 8-7.1 7.78-12.2.24-4.33-.66-9.18-4.38-11.88-4.38-3.83-10.47-2.92-15.82-2.96zm38.57-6q11.64.18 23.3 0v6c-5.22 0-10.44 0-15.65-.06q-.07 5.43 0 10.88h14.56q0 3 0 6c-4.88-.07-9.74-.06-14.6 0q0 5.73 0 11.5l15.65-.13v7c-7.73 0-15.46-.07-23.18 0l-.07-41.18zm46.52.12h8.78l13.4 34.64c.7 2.12 2 4.2 1.6 6.53a61.72 61.72 0 0 0-7.45 0 80.27 80.27 0 0 1-3.58-9.15c-5.75.16-11.66-.44-17.3.24-1.44 2.9-2.26 6.08-3.87 8.92-2.46-.14-4.93-.15-7.38-.14l15.78-41.04zm-2.67 26.7c4.5-.5 9.1.28 13.57-.48a181.26 181.26 0 0 1-6.8-17.55c-2.1 6.1-4.52 12.02-6.8 18.03zm35.85-23.72c5.6-5.1 13.78-3.42 20.68-3.4q0 3.57 0 7.16c-5.26-1.82-12.38-2.87-16.24 2.16 0 .8-.06 2.38-.1 3.18 4.36 5.52 13.12 4.15 17.32 9.88 4.57 6 .33 15.05-6.27 17.47-5.24 2.67-11.24 2.55-16.87 1.47-2.3-1.82-.62-5.42-1.15-7.93 4.57 1.4 9.64 2.67 14.3.9 2.55-1.3 5.07-4.86 2.7-7.45-3.4-3.65-8.93-3.6-13.06-6.08-6.42-3.18-6.67-13.02-1.33-17.34z" fill="#221e1f"/></svg>